# xmcd
#
# Track frame offsets: 
#        150
#        19520
#        44545
#        62422
#        78370
#        98302
#        119007
#        140677
#        156782
#        177210
#
# Disc length: 2617 seconds
#
# Revision: 0
# Processed by: cddbd v1.5.2PL0 Copyright (c) Steve Scherf et al.
# Submitted via: ExactAudioCopyFreeDBPlugin 1.0
#
DISCID=770a370a
DTITLE=รวมศิลปิน - คอรัสเพื่อชีวิต แผ่น 2
DYEAR=1900
DGENRE=Country
TTITLE0=รักคุณเท่าฟ้า
TTITLE1=ลุงขี้เมา
TTITLE2=มหาลัย
TTITLE3=ยังไม่สาย
TTITLE4=วณิพก
TTITLE5=ดิน น้ำ ลม ไฟ
TTITLE6=สัญญาหน้าฝน
TTITLE7=รักทรหด
TTITLE8=เรฟูจี
TTITLE9=เมด อิน ไทยแลนด์
EXTD=
EXTT0=
EXTT1=
EXTT2=
EXTT3=
EXTT4=
EXTT5=
EXTT6=
EXTT7=
EXTT8=
EXTT9=
PLAYORDER=
